<svg width="597" height="597" viewBox="0 0 596 597" fill="none" xmlns="http://www.w3.org/2000/svg">
<path d="M273.205 0.658229C150.405 11.3249 45.0716 97.1916 11.4716 214.392C2.40494 245.725 -0.128392 264.125 0.00494117 299.058C0.00494117 332.258 2.13827 348.658 10.4049 378.792C37.8716 478.258 118.005 558.392 217.472 585.858C247.338 593.992 264.005 596.125 297.205 596.258C329.472 596.392 342.938 594.792 371.738 587.592C454.538 566.925 526.538 508.658 565.472 431.058C577.472 407.325 588.272 372.525 593.338 341.725C596.938 319.858 596.672 274.392 592.805 251.725C581.472 185.058 552.272 129.325 504.938 83.5916C455.738 36.1249 393.472 7.45823 325.872 1.19156C311.605 -0.141771 285.472 -0.408438 273.205 0.658229ZM338.538 45.5916C365.472 50.3916 384.805 56.6582 408.405 67.8582C461.605 93.3249 502.805 134.525 528.538 187.992C562.272 258.392 562.272 338.925 528.405 409.058C466.938 536.658 314.805 590.125 187.338 528.925C134.005 503.325 92.8049 462.125 67.2049 408.792C56.0049 385.325 50.0049 366.392 44.9383 338.392C41.7383 320.658 41.7383 276.125 44.9383 258.392C50.0049 230.392 56.0049 211.458 67.2049 187.992C83.4716 154.125 105.072 126.258 133.205 102.658C172.005 70.1249 218.272 50.1249 269.872 43.8582C284.138 41.9916 324.272 43.0582 338.538 45.5916Z" fill="black" fill-opacity="0.38"/>
<path d="M287.507 119.749C281.534 122.491 276.206 128.136 273.946 134.104C272.816 137.008 272.17 162.01 272.17 205.4V272.179L202.915 272.663C135.758 273.147 133.498 273.308 129.139 276.534C120.583 282.825 118 287.986 118 298.148C118 308.31 120.583 313.472 129.139 319.763C133.498 322.989 135.758 323.15 202.753 323.634L272.009 324.118L272.493 393.317C272.978 460.257 273.139 462.515 276.368 466.87C282.664 475.419 287.83 478 298 478C308.17 478 313.336 475.419 319.632 466.87C322.861 462.515 323.022 460.257 323.507 393.317L323.991 324.118L393.247 323.634C460.242 323.15 462.502 322.989 466.861 319.763C475.417 313.472 478 308.31 478 298.148C478 287.986 475.417 282.825 466.861 276.534C462.502 273.308 460.242 273.147 393.247 272.663L323.991 272.179L323.507 202.98C323.022 136.04 322.861 133.782 319.632 129.427C317.856 127.007 314.466 123.459 312.206 121.846C306.717 117.813 293.964 116.684 287.507 119.749Z" fill="black" fill-opacity="0.38"/>
</svg>
