<svg width="954" height="846" viewBox="0 0 954 846" fill="none" xmlns="http://www.w3.org/2000/svg">
<path fill-rule="evenodd" clip-rule="evenodd" d="M434.591 9.40875C434.364 9.18125 434.272 8.8175 434 8H436V10C435.182 9.7275 434.819 9.63625 434.591 9.40875ZM562 140L561 136C562.745 135.11 564.125 134.547 566 134C565.503 137.207 564.85 138.443 562 140Z" fill="black"/>
<path fill-rule="evenodd" clip-rule="evenodd" d="M36.9109 669.047L36.9122 669.048C37.0021 669.09 37.0919 669.132 37.1814 669.174C37.0916 669.132 37.0011 669.09 36.9109 669.047Z" fill="black"/>
<path d="M720.906 529.079C719.702 532.129 718.475 535.234 715.695 537.027L821 488C821.675 486.414 822.12 485.578 822.434 484.989L822.435 484.988C823.056 483.821 823.16 483.626 823.5 480.5L720.906 529.079Z" fill="black"/>
<path fill-rule="evenodd" clip-rule="evenodd" d="M729.87 542.52L729.867 542.521C729.806 542.551 729.745 542.581 729.684 542.611C729.746 542.581 729.808 542.551 729.87 542.52Z" fill="black"/>
<path d="M397 759.161L405 748.014L459 785.514V801.514L397 759.161Z" fill="black"/>
<path d="M539 759.161L531 748.014L477 785.514V801.514L539 759.161Z" fill="black"/>
<path fill-rule="evenodd" clip-rule="evenodd" d="M428.667 142.333C428.222 142.778 429.278 142.722 429.333 142.667C429.778 142.222 428.722 142.278 428.667 142.333Z" fill="black"/>
<path d="M509 172C516.368 169.696 525.617 165.937 533 169C532.244 166.823 531.551 165.715 530 164C535.639 162.953 541.537 163.615 547 162C544.44 160.058 542.192 160.035 539 160V158C541.845 157.595 544.221 156.283 547 155.71C548.834 155.332 550.994 155.869 552.677 154.887C558.913 151.251 548.776 147.485 546 147.174C536.779 146.142 531.402 149.942 523.576 153.787C514.922 158.038 505.472 160.059 509 172Z" fill="black"/>
<path d="M420 161C430.234 154.734 435.825 164.472 445.09 167.446C452.142 169.71 458.865 168.306 466 168C463.541 158.624 453.065 154.859 445 151.402C440.983 149.68 437.749 144.867 433.83 143.718C425.391 141.245 421.154 155.452 420 161Z" fill="black"/>
<path d="M465.666 775.347V772.503V769.619V759.94V745.597V742.619H467.762V745.559V748.389V757.48V772.5V775.347H465.666ZM472.723 752.438C472.569 751.142 471.947 750.136 470.856 749.421C469.983 748.848 468.952 748.504 467.762 748.389C467.466 748.361 467.159 748.347 466.842 748.347C465.683 748.347 464.669 748.534 463.799 748.909C462.939 749.284 462.265 749.8 461.78 750.456C461.302 751.112 461.064 751.858 461.064 752.693C461.064 753.392 461.23 753.993 461.562 754.496C461.903 754.99 462.338 755.403 462.866 755.736C463.395 756.06 463.949 756.328 464.528 756.541C465.108 756.746 465.64 756.912 466.126 757.04L467.762 757.48L468.785 757.756C469.467 757.935 470.226 758.182 471.061 758.497C471.905 758.813 472.71 759.243 473.477 759.788C474.253 760.325 474.892 761.016 475.395 761.859C475.897 762.703 476.149 763.739 476.149 764.966C476.149 766.381 475.778 767.659 475.037 768.801C474.304 769.943 473.23 770.851 471.815 771.524C470.666 772.074 469.315 772.4 467.762 772.5C467.415 772.523 467.057 772.534 466.689 772.534C466.339 772.534 465.998 772.524 465.666 772.503C464.217 772.411 462.934 772.119 461.818 771.626C460.454 771.021 459.38 770.178 458.596 769.095C457.821 768.013 457.382 766.756 457.28 765.324H460.552C460.637 766.313 460.97 767.131 461.549 767.778C462.137 768.418 462.879 768.895 463.774 769.21C464.374 769.414 465.005 769.55 465.666 769.619C465.999 769.653 466.34 769.671 466.689 769.671C467.899 769.671 468.985 769.475 469.949 769.082C470.912 768.682 471.674 768.128 472.237 767.421C472.799 766.705 473.081 765.869 473.081 764.915C473.081 764.045 472.838 763.338 472.352 762.793C471.866 762.247 471.227 761.804 470.434 761.463C469.642 761.122 468.785 760.824 467.865 760.568L465.666 759.94L464.643 759.648C462.598 759.06 460.978 758.22 459.785 757.129C458.592 756.038 457.995 754.611 457.995 752.847C457.995 751.381 458.392 750.102 459.184 749.011C459.985 747.912 461.059 747.06 462.406 746.455C463.407 746.001 464.493 745.716 465.666 745.597C466.081 745.555 466.507 745.534 466.944 745.534C467.222 745.534 467.495 745.542 467.762 745.559C469.121 745.642 470.348 745.936 471.444 746.442C472.757 747.038 473.797 747.857 474.564 748.896C475.339 749.936 475.748 751.117 475.791 752.438H472.723Z" fill="black"/>
<path fill-rule="evenodd" clip-rule="evenodd" d="M443 5.00001L444 10C442.064 9.49106 440.345 8.91422 438.694 8.36021C435.007 7.12354 431.66 6.00056 427 6.00001C426.896 6.54965 426.806 7.12139 426.714 7.70254C426.386 9.77318 426.04 11.9634 424.988 13.7C424.193 15.0117 423.158 16.0685 422.122 17.1252C420.971 18.3001 419.82 19.4749 419 21H417C414.382 16.159 406.747 17.606 404.111 22.222C403.211 23.7984 403.174 25.4933 403.136 27.1907C403.108 28.4565 403.08 29.7236 402.694 30.944C402.145 32.686 401.551 32.7729 400.032 32.9954L400 33V37C394.477 37.114 388.182 37.518 385.314 43.019C384.559 44.4668 384.183 46.0632 383.807 47.6587C383.54 48.7907 383.273 49.9222 382.871 51C382.561 51.8318 382.097 52.7013 381.62 53.5951C380.534 55.6273 379.382 57.7851 379.827 59.911C380.147 61.4386 381.276 62.6646 382.397 63.8809C383.994 65.6155 385.574 67.3303 384.762 69.872C383.744 73.0586 380.368 75.3489 377.204 77.495C375.515 78.6409 373.886 79.7458 372.709 80.924C370.419 83.2166 369.405 86.2213 368.389 89.2291C367.958 90.5033 367.528 91.7782 367 93C369.018 93.34 369.967 93.323 372 93C372.773 94.1614 373.678 95.087 374.561 95.9908C375.967 97.4285 377.318 98.811 378 101C373.695 102.431 374.532 105.689 379 105C379.515 109.496 379.612 111.962 376 115C376.221 115.775 376.456 116.501 376.681 117.194L376.682 117.197L376.682 117.199L376.683 117.201L376.683 117.202C377.662 120.221 378.448 122.643 377 126L379 131L374 130C375.453 132.971 377.014 134.562 380 136C378.923 138.968 378.797 140.099 380 143H377C380.148 146.818 381.777 148.929 381 154C382.723 154.934 384.106 155.535 386 156C385.299 157.826 384.292 159.696 383.263 161.605C380.954 165.893 378.539 170.377 379.244 174.996C379.628 177.512 381.077 179.469 382.526 181.426C384.187 183.67 385.848 185.913 385.903 189C385.953 191.821 384.543 194.239 383.144 196.638C381.767 199.001 380.399 201.345 380.448 204.039C380.529 208.545 382.154 212.851 383.771 217.134C385.254 221.063 386.73 224.973 387 229C380.559 229.837 371.697 233.206 371.322 241C371.124 245.126 373.029 248.426 374.951 251.756C375.412 252.555 375.875 253.356 376.309 254.17C376.88 255.24 377.289 256.214 377.664 257.105L377.665 257.107C378.737 259.66 379.521 261.528 383 263C382.297 270.442 390.56 278.463 396.893 284.609L396.894 284.61L396.897 284.613C398.544 286.211 400.06 287.683 401.254 288.985C407.854 296.185 413.336 303.843 418.795 312C419.578 313.17 420.324 314.437 421.079 315.721L421.08 315.722C422.91 318.832 424.803 322.049 427.456 324.276C428.829 325.429 430.496 326.181 432.164 326.933C433.475 327.524 434.788 328.116 435.961 328.904C437.175 329.72 438.288 330.644 439.393 331.561C441.421 333.244 443.427 334.909 446.004 335.867C447.719 336.503 449.545 336.602 451.359 336.7C453.241 336.801 455.11 336.902 456.826 337.603C459.979 338.889 462.461 342.405 464.457 345.233C464.547 345.361 464.637 345.488 464.725 345.613L464.887 345.841L465 346C458.815 345.734 451.799 345.304 446 343.012C444.639 342.473 443.375 341.735 442.112 340.998C440.475 340.042 438.84 339.087 437 338.572C435.444 338.136 433.819 338.083 432.203 338.029C429.719 337.948 427.254 337.866 425.09 336.397C420.06 332.982 415.58 326.251 411.995 320.866L411.995 320.865L411.992 320.86L411.973 320.831C411.793 320.562 411.616 320.295 411.441 320.033C411.206 319.681 410.975 319.336 410.749 319C406.26 312.332 402.084 305.158 398.425 298C397.976 297.123 397.551 296.201 397.122 295.27L397.119 295.265L397.118 295.264L397.117 295.261L397.115 295.257L397.115 295.256L397.114 295.255L397.113 295.252L397.111 295.248L397.111 295.247L397.11 295.246L397.11 295.245L397.109 295.244C395.387 291.512 393.587 287.611 389.906 285.609C383.489 282.118 376.89 284.454 370.637 286.667C369.41 287.102 368.196 287.531 367 287.911C347.425 294.125 331.02 303.79 314 315L315 318C309.789 320.298 305.855 324.777 301.948 329.225C297.534 334.252 293.153 339.241 287 341C287.02 335.104 288.095 327.04 291.589 322.089C293.502 319.378 296.337 317.407 299.102 315.485C300.092 314.796 301.073 314.114 302 313.406C308.002 308.821 313.426 303.823 316.829 297C322.291 286.052 322.889 273.396 323.466 261.186C323.597 258.427 323.726 255.689 323.91 253C324.008 251.572 324.027 250.14 324.047 248.71C324.096 245.085 324.144 241.476 325.471 238C329.28 228.013 336.766 218.988 343.943 210.335L343.944 210.334C346.84 206.842 349.687 203.41 352.221 200C352.702 199.352 353.218 198.674 353.753 197.97L353.761 197.959L353.762 197.957L353.764 197.954C357.143 193.507 361.291 188.049 362.447 183C363.277 179.376 361.459 174.832 359.686 170.402C358.504 167.449 357.343 164.546 357 162C355.42 162.684 355.223 162.805 354 164C349.532 160.396 345.715 158.761 340 160C338.291 156.565 335.491 153.92 332.688 151.273C331.216 149.883 329.743 148.492 328.427 146.985C319.208 136.43 309.461 125.473 299 116.108C294.305 111.905 287.601 106.469 281 106.649C278.182 106.726 275.59 108.04 273.047 109.329C272.027 109.846 271.015 110.358 270 110.786C268.072 111.598 266.092 112.492 264.074 113.403L264.073 113.404C256.351 116.891 248.067 120.631 240 121L241 124C235.874 125.969 233.297 129.052 230.502 132.397C229.086 134.091 227.614 135.852 225.726 137.57C224.076 139.071 222.01 139.784 219.94 140.498C218.628 140.95 217.315 141.403 216.104 142.058C211.732 144.421 205.767 149.919 203.032 154.04C201.275 156.688 201.165 159.487 201.052 162.362C200.992 163.89 200.931 165.44 200.621 167C199.858 170.848 198.663 174.612 197.469 178.376C196.146 182.545 194.823 186.715 194.085 191C193.703 193.219 193.942 195.43 194.178 197.609C194.413 199.778 194.645 201.916 194.256 204C193.995 205.396 193.378 206.66 192.759 207.927C192.123 209.231 191.484 210.538 191.228 212C190.169 218.039 190.353 224.633 190.53 230.995V230.996V230.997C190.596 233.378 190.661 235.726 190.66 238C190.659 240.18 190.575 242.303 190.491 244.398C190.257 250.276 190.032 255.932 191.691 262C194.521 272.356 200.2 281.968 205.814 291C206.463 292.045 207.136 293.078 207.809 294.11L207.81 294.112C211.196 299.311 214.569 304.49 214.856 311C215.072 315.91 213.21 320.828 211.359 325.713C210.053 329.163 208.752 332.596 208.194 336C206.271 347.738 204.211 359.435 201.548 371C201.158 372.693 200.615 374.353 200.073 376.012C199.217 378.63 198.36 381.248 198.104 384C197.339 392.227 198.802 400.097 200.264 407.963C200.823 410.969 201.382 413.975 201.816 417C202.272 420.178 202.785 423.331 203.296 426.475C204.674 434.948 206.042 443.355 206.251 452C206.321 454.899 205.481 457.557 204.645 460.202C203.839 462.75 203.037 465.287 203.058 468.015C203.137 478.558 208.335 486.96 213.623 495.507C214.375 496.723 215.129 497.942 215.87 499.17C216.473 500.169 217.063 501.254 217.667 502.367C219.653 506.02 221.799 509.97 225.104 512.142C231.285 516.205 242.382 513.589 249 511.857C262.713 508.27 275.237 501.939 287.859 495.56L287.863 495.558C292.213 493.359 296.574 491.155 301 489.055C302.826 488.188 305.071 487.377 307.443 486.52L307.445 486.519L307.446 486.518L307.448 486.518L307.449 486.517L307.451 486.517L307.453 486.516L307.454 486.516L307.456 486.515L307.457 486.515L307.459 486.514L307.46 486.514L307.461 486.513L307.463 486.512C313.357 484.383 320.032 481.971 323.03 477.736C324.78 475.264 325.455 472.452 326.13 469.643L326.13 469.641C326.591 467.724 327.051 465.807 327.853 464C331.516 455.751 339.665 447.491 346.129 440.938L346.822 440.235L347.039 440.015C349.636 437.38 353.094 433.935 356.977 433.427C361.799 432.796 363.042 442.697 363.597 447.115L363.597 447.117L363.6 447.138C363.64 447.456 363.676 447.746 363.71 448C364.004 450.211 363.773 452.397 363.543 454.575C363.316 456.72 363.09 458.856 363.368 461C364.215 467.52 365.675 474.065 367.135 480.612C368.652 487.415 370.169 494.22 371 501C373.858 502.577 374.345 504.941 374.864 507.461C375.244 509.306 375.642 511.235 377 513L374 512C375.007 535.461 374.488 557.958 369 581C368.936 580.904 368.876 580.816 368.82 580.734C368.754 580.637 368.694 580.549 368.638 580.468C368.01 579.558 368 579.543 368 578C361.927 579.58 357.334 577.055 352.382 574.333C350.965 573.554 349.519 572.759 348 572.039C341.322 568.873 334.626 565.785 327.928 562.695C320.948 559.476 313.966 556.255 307 552.945C284.217 542.12 261.153 531.803 238.112 521.496L238.109 521.494L238.092 521.486C232.392 518.937 226.693 516.387 221 513.831C212.217 509.887 203.523 505.779 194.833 501.672L194.829 501.671C181.319 495.286 167.816 488.905 154 483.153C149.784 481.398 145.628 479.423 141.468 477.446L141.467 477.445C134.117 473.952 126.751 470.452 119 468.137C117.901 467.809 116.808 467.409 115.712 467.008L115.706 467.006L115.705 467.006L115.704 467.006C113.192 466.087 110.663 465.162 108 465.073C102.594 464.891 94.874 467.313 90.015 469.645C80.4558 474.232 75.9989 484.61 71.9883 493.948L71.986 493.953L71.9843 493.957L71.9822 493.962C71.5405 494.99 71.1042 496.006 70.667 497C69.3073 500.091 67.7158 503.066 66.1244 506.04L66.1236 506.042C64.8923 508.343 63.661 510.645 62.537 513C55.425 527.905 48.4722 542.892 41.5201 557.879L41.516 557.888L41.5152 557.89L41.5139 557.892C32.3444 577.659 23.1751 597.424 13.6404 617C12.7567 618.814 11.8368 620.638 10.913 622.469L10.9119 622.471C3.25455 637.647 -4.69568 653.405 5.04482 669.83C12.7152 682.765 25.8508 689.133 39 695.08C41.073 696.018 43.1475 696.953 45.222 697.888C54.8542 702.232 64.4894 706.576 74 711.155C111.068 729.003 148.479 746.045 185.909 763.097L185.914 763.099L185.917 763.1L185.92 763.102L185.923 763.103L185.926 763.104L185.929 763.106L185.932 763.107L185.936 763.109L185.938 763.11L185.941 763.111L185.944 763.113L185.948 763.115L185.951 763.116L185.953 763.117L185.956 763.119L185.96 763.12L185.963 763.121L185.966 763.123L185.969 763.124L185.973 763.126L185.98 763.129L185.997 763.137C202.003 770.429 218.012 777.722 234 785.08C239.743 787.723 245.399 790.612 251.058 793.504C260.871 798.516 270.694 803.535 281 807.285L281.215 807.363C288.947 810.177 297.635 813.338 306 812.931C319.312 812.283 332.381 797.136 339.355 787C340.489 785.352 341.286 783.65 342.061 781.995C343.474 778.977 344.815 776.112 348 774L346 769C349.613 772.827 353.92 775.556 359 777C358.782 778.686 358.776 779.316 359 781C362.778 780.15 364.507 781.58 366.821 783.493C367.514 784.066 368.26 784.683 369.129 785.295L386.015 797.341C394.63 803.405 403.4 809.27 412.167 815.132L412.168 815.133L412.169 815.134L412.171 815.135L412.172 815.136C418.469 819.346 424.765 823.556 431 827.838C432.709 829.011 434.426 830.242 436.159 831.484L436.169 831.491C443.271 836.58 450.664 841.878 459 844.352C472.964 848.496 484.501 840.056 495.192 832.236L495.194 832.235L495.198 832.232C496.816 831.048 498.415 829.878 500 828.769C506.073 824.518 512.123 820.215 518.176 815.91C529.422 807.912 540.675 799.908 552.089 792.228C556.929 788.971 561.925 785.916 566.923 782.859C575.542 777.588 584.167 772.313 592 766C594.159 770.619 596.96 774.827 599.766 779.041C601.294 781.336 602.823 783.634 604.251 786.001C605.641 788.305 607.013 790.688 608.399 793.096C617.548 808.988 627.33 825.978 647 828.568C657.653 829.971 666.956 825.222 676.067 820.571L676.075 820.566L676.821 820.185C677.016 820.086 677.211 819.987 677.405 819.888C677.604 819.787 677.802 819.686 678 819.586C683.101 817.002 688.24 814.475 693.38 811.948L693.383 811.947L693.388 811.944C702.318 807.554 711.253 803.161 720 798.459C746.187 784.38 772.987 771.562 799.796 758.74L799.798 758.739L799.8 758.738L799.802 758.738L799.803 758.737L799.804 758.736L799.806 758.735L799.807 758.735L799.809 758.734L799.81 758.733L799.812 758.732L799.813 758.732L799.815 758.731L799.816 758.73L799.818 758.729L799.819 758.729L799.821 758.728L799.822 758.727L799.823 758.727L799.825 758.726L799.826 758.725L799.828 758.724L799.829 758.724L799.831 758.723L799.832 758.722L799.834 758.721L799.835 758.721L799.837 758.72L799.838 758.719L799.84 758.719L799.841 758.718L799.843 758.717L799.844 758.716L799.845 758.716L799.847 758.715L799.848 758.714L799.85 758.713L799.851 758.713L799.853 758.712L799.854 758.711L799.856 758.71L799.857 758.71L799.859 758.709L799.86 758.708L799.862 758.708L799.863 758.707L799.865 758.706L799.866 758.705L799.867 758.705C818.305 749.887 836.748 741.066 855 731.83C859.42 729.593 863.74 727.158 868.065 724.719C872.663 722.127 877.266 719.531 882 717.169C886.651 714.848 891.333 712.573 896.018 710.298L896.019 710.297L896.02 710.296C906.443 705.234 916.875 700.166 927 694.566C936.265 689.441 945.015 684.151 949.647 674C958.54 654.507 948.387 635.75 938.6 619C924.576 594.998 911.038 570.609 898.106 546C890.69 531.889 882.914 517.861 875.001 504C874.169 502.543 873.378 501.092 872.595 499.657L872.592 499.652C869.168 493.375 865.909 487.402 860.169 482.532C856.351 479.294 852.021 477.873 847.663 476.443C844.74 475.483 841.803 474.519 839 473C837.584 473.472 837.186 473.814 836 475C835.992 463.506 835.958 450.655 831.381 440C826.634 428.949 818.059 419.349 809.964 410.288C808.677 408.846 807.401 407.418 806.155 406C793.346 391.424 781.299 376.933 771.699 360C768.459 354.284 765.41 348.17 762.316 341.965C750.844 318.959 738.755 294.716 714 284.974C700.449 279.641 685.826 277.554 671.469 275.506C669.305 275.197 667.147 274.889 665 274.571C657.529 273.464 650.067 272.125 642.601 270.785C636.074 269.614 629.543 268.442 623 267.424C620.904 267.098 618.722 266.84 616.519 266.58C611.922 266.037 607.227 265.483 603 264.272C600.164 263.46 597.554 262.153 594.943 260.845C593.314 260.03 591.685 259.214 590 258.518C588.955 258.086 587.85 257.763 586.744 257.441C584.461 256.774 582.172 256.106 580.388 254.468C575.54 250.017 579.796 247.253 583.89 244.595C586.621 242.821 589.28 241.095 589.119 238.945C588.911 236.181 586.839 233.398 584.851 230.727C583.64 229.1 582.459 227.514 581.75 226C579.034 220.2 576.931 214.008 574.838 207.844C573.597 204.19 572.36 200.547 571 197C573.259 198.105 574.342 199.078 576 201C578.448 193.594 581.728 180.022 578 173C571.72 176.981 566.177 176.988 559.039 176.998C558.697 176.999 558.35 176.999 558 177C559.4 172.466 559.097 167.976 558.791 163.444C558.537 159.675 558.28 155.876 559 152C554.616 154.996 554.63 160.097 554.644 165.118V165.12V165.121V165.123V165.125V165.126V165.128V165.129V165.13V165.132V165.133C554.647 166.44 554.651 167.743 554.576 169C554.064 177.62 552.807 186.266 551.557 194.867V194.868V194.87C551.017 198.59 550.478 202.302 550 206C542.168 204.616 537.156 208.831 531.938 213.221C528.895 215.78 525.783 218.398 522 220C520.887 214.413 517.081 210.206 513.308 206.035L513.306 206.032C511.808 204.377 510.316 202.728 509 201C502.169 203.07 498.132 200.715 492.804 197.607L492.802 197.606L492.8 197.605C491.909 197.085 490.982 196.545 490 196L493 208C489.147 209.1 486.647 211.984 484.113 214.909C482.534 216.731 480.942 218.568 479 220C475.407 212.157 470.402 209.024 462 209C463.962 206.356 465.249 204.203 466 201C467.176 203.234 467.927 204.612 470 206L472 198C469.434 198.61 466.913 198.747 464.425 198.881C460.214 199.11 456.097 199.333 452.015 201.84C447.588 204.558 442.774 209.116 439.545 213.169C439.017 213.832 438.513 214.52 438.015 215.199C435.218 219.015 432.612 222.572 427 219.982C423.896 218.549 421.373 216.199 418.885 213.881C418.27 213.309 417.658 212.738 417.039 212.184C416.04 211.289 415.041 210.452 414.065 209.635C409.866 206.116 406.083 202.947 404.471 197C403.789 194.487 403.881 191.889 403.973 189.288C404.059 186.837 404.145 184.384 403.585 182C402.999 179.506 402.16 177.013 401.315 174.501C399.619 169.46 397.898 164.344 398.144 159C398.267 156.327 399.211 153.828 400.155 151.327C400.818 149.572 401.481 147.816 401.86 146C403.467 138.303 404.229 128.878 403.982 121.001C403.938 119.603 403.714 118.223 403.49 116.845V116.844C403.219 115.179 402.949 113.517 402.998 111.83C403.072 109.329 403.509 106.852 403.946 104.376C404.379 101.925 404.811 99.4745 404.892 97C404.926 95.9466 404.683 94.7655 404.436 93.5667C404.053 91.7041 403.66 89.7986 404.287 88.263C405.146 86.1589 407.565 84.7319 409.898 83.356C411.36 82.4936 412.788 81.6514 413.776 80.675C414.877 79.587 415.768 78.5445 416.591 77.5823C419.06 74.6933 420.913 72.5251 426 72L422 75C425.755 76.7967 428.45 76.2336 431.456 75.6057C433.129 75.2562 434.899 74.8866 437 74.893C439.227 74.8996 441.758 75.8099 444.308 76.7269C449.106 78.4524 453.97 80.2019 457 76H459L460 79L465 76C466.308 79.0458 467.323 78.2055 469.19 76.6599L469.192 76.6583C469.445 76.4491 469.713 76.2271 470 76C470.641 84.225 484.807 83.608 487 77C488.545 77.1823 490.033 77.2238 491.474 77.2639C495.22 77.3683 498.657 77.464 502 80C507.059 76.614 511.812 74.707 518 74.298C519.37 74.2073 520.605 74.2217 521.781 74.2353C524.509 74.2669 526.925 74.2949 530 73V70C531.527 71.7948 533.13 73.5202 534.727 75.2391L534.728 75.2401C540.15 81.0762 545.504 86.8391 547.6 95C548.729 99.3935 548.506 103.396 548.275 107.55C548.176 109.325 548.076 111.128 548.079 113C548.082 114.891 548.401 116.723 548.72 118.553C549.089 120.676 549.459 122.795 549.334 125L549.322 125.213C548.955 131.712 548.534 139.165 556 141C559.505 135.059 560.723 142.548 561.492 147.273L561.492 147.274L561.492 147.275L561.492 147.276L561.492 147.278L561.493 147.279L561.493 147.281C561.68 148.429 561.84 149.413 562 150C561.913 149.942 561.831 149.887 561.755 149.835C561.65 149.764 561.555 149.698 561.469 149.639L561.467 149.637C560.558 149.01 560.543 149 559 149C560.501 150.757 561.543 150.829 563.819 150.987L564 151C563.978 152.824 564.493 154.552 565.005 156.27C565.561 158.138 566.115 159.997 565.974 161.961C565.826 164.014 564.735 165.908 563.66 167.774C563.04 168.85 562.426 169.917 562 171C568.406 170.982 574.99 170.087 579.297 164.674C587.139 154.819 577.834 141.397 568 138C568.149 137.231 568.287 136.446 568.426 135.654L568.427 135.648L568.428 135.643C569.008 132.346 569.609 128.926 571.125 126C571.992 124.327 572.901 122.867 573.765 121.48C576.118 117.704 578.127 114.479 577.984 109C577.893 105.517 575.699 102.998 573.58 100.565C571.318 97.9675 569.141 95.4687 569.703 92C570.232 88.7361 572.187 86.3106 574.142 83.8857C576.612 80.8212 579.082 77.7577 578.67 73.004C578.181 67.3719 574.994 65.0748 571.641 62.6586C568.991 60.7487 566.238 58.7645 564.633 55C563.82 53.0934 564.08 51.1426 564.336 49.2262C564.611 47.1663 564.88 45.1461 563.806 43.263C562.401 40.8011 559.789 39.7597 557.205 38.7296C554.781 37.7635 552.383 36.8072 551.028 34.698C549.863 32.8843 549.716 30.7698 549.567 28.6402C549.389 26.0976 549.21 23.5335 547.297 21.434C545.342 19.288 542.76 19.1798 540.155 19.0706C538.107 18.9848 536.046 18.8984 534.263 17.821C532.393 16.6904 531.08 15.0527 529.758 13.4033C528.174 11.4287 526.578 9.43737 523.996 8.27901C520.618 6.76221 514.632 5.80251 511 6.66901C510.234 6.85164 509.504 7.18449 508.775 7.5169C507.573 8.06543 506.373 8.61277 505.015 8.48201C503.206 8.30724 501.764 7.17248 500.32 6.03676C499.237 5.18398 498.152 4.33066 496.911 3.8828C495.244 3.28131 493.565 3.44883 491.878 3.61716C490.59 3.74572 489.296 3.87476 488 3.66201C486.568 3.42703 485.249 2.91961 483.931 2.41227C482.352 1.80468 480.773 1.1972 479 1.05791C474.547 0.70798 470.646 1.80959 466.663 2.93411C464.5 3.54493 462.313 4.16252 460 4.55791C455.8 5.27591 451.537 5.17362 447.285 5.07162C445.854 5.03729 444.425 5.003 443 5.00001ZM258 123C259.846 123.468 261.069 123.301 263 123C260.988 125.042 258.588 126.6 256.181 128.164L256.18 128.165L256.178 128.166C254.769 129.081 253.357 129.998 252.019 131.015C250.704 132.014 249.576 133.205 248.452 134.393C247.28 135.629 246.112 136.862 244.741 137.871C241.482 140.267 237.887 142.313 234.291 144.359C231.373 146.02 228.454 147.681 225.714 149.53C224.227 150.533 222.412 151.191 220.6 151.847C217.132 153.103 213.678 154.354 212.573 158.019C212.03 159.82 211.869 161.703 211.707 163.592C211.551 165.412 211.395 167.238 210.896 169C210.257 171.254 209.583 173.532 208.903 175.828C206.738 183.144 204.522 190.629 203.264 198C202.91 200.074 203.091 202.14 203.272 204.207C203.44 206.134 203.609 208.062 203.345 210C202.987 212.633 202.572 215.294 202.155 217.975L202.154 217.977C200.035 231.586 197.839 245.684 202.52 259C206.263 269.647 211.486 279.14 218.899 287.826C220.278 289.442 222.108 290.883 223.96 292.342C227.706 295.293 231.545 298.317 231.941 303.015C232.412 308.613 231.23 314.309 230.083 319.833L230.083 319.834L230.083 319.836C229.792 321.236 229.504 322.626 229.245 324C226.234 339.997 221.914 355.448 216.971 371C216.296 373.125 215.447 375.22 214.598 377.317C213.437 380.181 212.276 383.048 211.553 386C210.622 389.802 211.282 393.392 211.95 397.024C212.311 398.99 212.675 400.968 212.79 403C212.862 404.277 212.724 405.541 212.587 406.805C212.435 408.2 212.283 409.593 212.414 411C212.965 416.899 214.314 422.671 215.661 428.434C216.792 433.272 217.921 438.104 218.576 443C218.704 443.954 218.89 445.034 219.088 446.181L219.089 446.187L219.089 446.189C219.789 450.239 220.635 455.137 219.567 458.385C218.841 460.594 217.824 462.431 216.852 464.186C214.917 467.679 213.16 470.852 214.228 476C215.039 479.909 217.06 483.555 219.004 487C219.369 487.646 219.731 488.308 220.097 488.977L220.098 488.978C222.443 493.263 224.945 497.833 229.174 500.362C233.622 503.021 238.654 502.309 243.566 501.614L243.568 501.614L243.569 501.614L243.577 501.613C244.389 501.498 245.198 501.383 246 501.285C259.998 499.564 271.207 492.763 283.159 485.51L284 485C281.566 483.905 278.895 483.348 276.232 482.792L276.226 482.791C274.802 482.494 273.381 482.197 272 481.819C269.402 481.107 258.826 477.269 260.346 473.34C261.236 471.038 265.752 470.652 269.704 470.314L269.705 470.314C271.869 470.129 273.863 469.959 275 469.496C281.335 466.918 285.132 462.283 289.045 457.507C290.999 455.121 292.983 452.7 295.326 450.482C296.029 449.817 296.982 449.232 297.961 448.631L297.963 448.63C299.986 447.389 302.119 446.08 302.381 443.857C302.673 441.382 301.503 438.95 300.392 436.642C299.959 435.741 299.534 434.859 299.209 434C297.584 429.706 296.538 424.513 295.63 420C294.36 413.691 293.321 407.334 292.281 400.977C290.525 390.245 288.769 379.511 285.907 369C285.066 365.911 284.022 362.814 282.972 359.698C280.367 351.967 277.724 344.122 278.04 336C278.362 327.746 280.087 317.373 286.329 311.39C288.942 308.885 291.887 306.948 294.809 305.025C299.673 301.825 304.475 298.666 307.583 293C312.612 283.835 312.81 272.699 313.006 261.719C313.127 254.917 313.247 248.176 314.513 242C317.439 227.731 328.16 214.805 337.727 203.272C339.212 201.481 340.67 199.724 342.066 198C342.881 196.993 343.724 196.003 344.56 195.02C350.03 188.591 355.246 182.46 351 174C344.18 177.518 339.523 182.205 334.355 187.405L334.35 187.41L334.345 187.415L334.32 187.44C333.577 188.188 332.823 188.947 332.05 189.714C320.02 201.663 309.681 213.714 300.768 228.001C300.244 228.842 299.711 229.682 299.177 230.525L299.176 230.525C295.314 236.619 291.384 242.819 290 250C283.929 248.226 278.433 245.121 272.942 242.018C270.969 240.904 268.998 239.79 267 238.738C262.153 236.185 256.999 234.146 251.88 232.121L251.878 232.12C250.245 231.474 248.615 230.83 247 230.17C245.187 229.43 243.176 229.059 241.169 228.69C237.292 227.976 233.429 227.264 231.032 223.891C227.623 219.094 228.206 210.589 228.694 203.465L228.694 203.464C228.856 201.094 229.008 198.877 228.999 197C228.976 192.075 227.718 187.481 226.453 182.863C225.568 179.627 224.679 176.38 224.209 173C223.605 168.652 224.03 164.321 224.455 159.991C224.717 157.328 224.978 154.666 225 152H227C227 152.9 226.968 153.936 226.933 155.058L226.933 155.06C226.742 161.233 226.471 170.013 231 173C230.977 173.068 230.956 173.133 230.935 173.195L230.886 173.346C230.696 173.926 230.601 174.216 230.409 174.409C230.216 174.601 229.926 174.696 229.346 174.886L229.287 174.905C229.198 174.934 229.103 174.966 229 175C231.272 180.856 234.382 186.157 237.486 191.45C240.617 196.788 243.744 202.118 246 208C246.06 207.98 246.117 207.961 246.172 207.943L246.346 207.886C246.926 207.696 247.216 207.601 247.409 207.409C247.601 207.216 247.696 206.926 247.886 206.346L247.926 206.223L247.963 206.111L248 206C248.542 206.339 249.095 206.693 249.657 207.053L249.66 207.054C252.614 208.943 255.826 210.997 259 212C258.925 210.059 259.055 208.107 259.18 206.231C259.637 199.356 260.027 193.508 250.005 193.039C248.545 192.971 247.077 192.982 245.613 192.992H245.611H245.61L245.597 192.992C245.064 192.996 244.531 193 244 193C245.543 187.965 244.903 183.779 244.242 179.463C243.786 176.479 243.319 173.432 243.559 170C243.689 168.151 244.382 166.359 245.067 164.59L245.067 164.588L245.068 164.585L245.069 164.584C245.404 163.719 245.737 162.859 246 162H244C244.303 160.955 244.611 159.819 244.935 158.628C246.733 152.02 249.002 143.677 253.299 139.278C255.642 136.878 259.22 135.207 262.547 133.652L262.548 133.652L262.549 133.651C263.758 133.087 264.933 132.538 266.004 131.975C267.85 131.005 269.717 130.056 271.586 129.107C278.656 125.514 285.768 121.9 292 117C285.211 107.067 266.974 117.746 258.759 122.556L258.304 122.822L258 123ZM771.5 611L801.5 585L798.5 622L836 643.5H795.132L792.5 687L771.5 649L725 662L750 630L732 593.5L771.5 611ZM156 592.762L185 566L181 605L219 624.791H176.5V665.5L156 632.259L110 641.5L135 612.5L116.5 575L156 592.762ZM365.744 591.761C368.639 593.849 371.559 595.956 375 596.656L347 596.828L324 584.972C317.235 581.68 310.362 578.679 303.484 575.675L303.48 575.673L303.475 575.671L303.471 575.669C298.973 573.704 294.473 571.739 290 569.691C279.503 564.885 269.008 560.113 258.518 555.343L258.494 555.332L258.47 555.321L258.446 555.31L258.422 555.299L258.398 555.288L258.374 555.277L258.293 555.24L258.275 555.232L258.273 555.232C235.806 545.016 213.365 534.813 191 524.319C187.203 522.538 183.256 521.012 179.31 519.486L179.308 519.485L179.307 519.485C174.444 517.604 169.582 515.724 165 513.367C151.136 506.234 137.242 499.488 123 493.116C121.904 492.626 120.791 492.086 119.661 491.539L119.653 491.535L119.652 491.534C114.414 488.996 108.823 486.287 103 487.487C98.1563 488.486 95.7137 491.768 92.9654 495.461L92.9575 495.472L92.8055 495.676L92.6468 495.889L92.564 496C88.3942 501.584 85.5079 508.104 82.6435 514.574C81.5361 517.076 80.4319 519.57 79.258 522C63.53 554.566 47.9224 587.758 33.7554 621C32.9296 622.937 32.3605 624.991 31.7934 627.037C31.1379 629.402 30.4852 631.757 29.4421 633.911C28.5005 635.855 27.2725 637.741 26.0404 639.633L26.0396 639.634C22.6068 644.906 19.1415 650.228 21.7423 656.999C24.0442 662.992 30.9433 666.239 36.9109 669.047L36.9122 669.048L37.1814 669.174C38.528 669.808 39.8223 670.422 41 671.041C57.947 679.955 74.855 688.449 92 696.756C102.971 702.072 114.107 707.014 125.244 711.956L125.245 711.957L125.247 711.958L125.249 711.959L125.25 711.959L125.253 711.961C135.544 716.528 145.836 721.095 156 725.959C164.152 729.86 172.272 733.837 180.394 737.815C199.425 747.135 218.473 756.464 238 764.851C244.658 767.711 251.083 771.079 257.501 774.444L257.502 774.445C268.633 780.281 279.741 786.104 292 789.239C296.193 790.312 300.87 790.207 305 788.856C309.13 787.505 312.337 786.723 317.17 786.579L335.5 758L346.5 761L321.957 798.41L321.64 798.694C318.479 801.521 315.05 804.589 311 805.982C303.839 808.447 296.798 806.407 290 804.079C279.282 800.407 269.093 795.986 259 790.777C229.668 775.639 199.201 762.192 169 748.944C147.349 739.447 125.945 729.187 104.574 718.944L104.572 718.943L104.571 718.942C92.7157 713.26 80.8706 707.582 69 702.043C64.5906 699.985 59.9669 698.064 55.2951 696.123C42.384 690.758 29.1046 685.241 18.9606 676.267C18.6652 676.006 18.3667 675.743 18.0663 675.479L17.9956 675.416L17.9797 675.402L17.9734 675.397L17.9708 675.395C13.1527 671.157 7.85518 666.498 6.39351 660C3.72214 648.123 9.4228 637.843 15.0402 627.713C17.2024 623.814 19.3523 619.937 21.0077 616C31.7173 590.529 43.8948 565.556 56.0326 540.665L56.036 540.658L56.0367 540.656C61.0216 530.433 65.9999 520.224 70.867 510C72.018 507.582 73.1088 505.063 74.2077 502.525L74.2084 502.523L74.2097 502.521C79.9676 489.223 85.9499 475.407 102 472.848C112.32 471.202 122.168 476.093 131 480.602C134.044 482.157 137.259 483.379 140.475 484.603L140.476 484.603L140.477 484.603L140.478 484.604C143.357 485.699 146.239 486.795 149 488.13C151.492 489.335 153.883 490.717 156.272 492.097L156.274 492.098C159.751 494.107 163.225 496.114 167 497.572C183.097 503.788 198.663 511.391 214.192 518.976L214.208 518.984L214.225 518.991C217.54 520.611 220.853 522.229 224.17 523.833C254.434 538.468 285.235 552.217 315.955 565.929L316.055 565.974L316.08 565.985L316.105 565.996L316.13 566.007C319.755 567.625 323.379 569.243 327 570.861C336.757 575.222 346.269 580.481 355.672 585.68L355.673 585.681C357.452 586.664 359.228 587.646 361 588.619C362.626 589.512 364.182 590.634 365.744 591.761ZM675.5 422.5C675.5 422.5 673.867 435.287 673 443.5C672.796 445.432 672.577 447.094 672.371 448.658C671.923 452.053 671.537 454.984 671.5 459.2C671.471 462.538 671.865 465.138 672.258 467.727C672.663 470.398 673.066 473.057 673 476.5C672.887 482.374 672.092 486.324 671.131 491.099L671.13 491.101L671.13 491.105C670.767 492.904 670.382 494.82 670 497C668.798 503.865 666.5 514.5 666.5 514.5C666.5 514.5 665.134 520.86 665 525C664.827 530.351 666.5 538.626 666.5 538.626C666.5 538.626 669.078 545.674 673 547C676.027 548.023 678.143 546.544 680.519 544.883C681.727 544.038 683.003 543.146 684.5 542.513C690.054 540.164 698.5 536 698.5 536C698.5 536 703.659 533.011 706.5 530.5C710.449 527.009 712.251 523.728 714.352 519.903C715.272 518.228 716.249 516.448 717.49 514.5C718.51 512.899 719.643 511.607 720.714 510.387L720.715 510.385L720.716 510.384C722.858 507.945 724.751 505.787 725 502C725.318 497.154 720.906 490.257 720.906 490.257C720.906 490.257 715.511 483.889 712.475 479.5C711.327 477.841 710.537 476.428 709.764 475.048L709.763 475.047L709.763 475.046C708.842 473.4 707.946 471.8 706.5 469.879C704.435 467.135 703.061 465.691 700.766 463.28L700.766 463.279L700.5 463C699.086 461.513 697.822 460.447 696.589 459.407C695.084 458.137 693.627 456.907 692 455C689.838 452.466 685.5 449 685.5 449C685.5 449 684.465 445.537 683.5 443.5C682.668 441.744 682.738 440.228 682.811 438.654C682.871 437.363 682.932 436.033 682.5 434.5C681.028 429.278 675.5 422.5 675.5 422.5ZM295.5 703.5L320 724L611 720.5L624.5 697.608V635.108L588 612H328L297 633L295.5 703.5ZM309.5 643.735L337 626H587.615L611 641.582V687.39L600.525 708H322.5L309.5 697.608V643.735ZM496.961 248.519C489.671 246.171 482.627 245 475 245C474.996 245.342 475.002 245.701 475.007 246.072C475.036 247.897 475.068 249.979 473.972 251.414C472.646 253.149 469.637 253.982 467.133 254.674L467.132 254.674L467.131 254.675C466.349 254.891 465.616 255.094 465 255.306C457.004 258.056 442.677 261.113 444.13 248C444.324 246.251 444.823 244.613 445.519 243C457.993 214.092 513.616 218.245 514 253C513.188 253.097 512.31 253.301 511.412 253.51C509.634 253.924 507.774 254.358 506.174 254.013C504.371 253.625 502.878 252.439 501.365 251.238C499.994 250.15 498.608 249.049 496.961 248.519ZM519.851 340.406C516.06 342.458 512.38 344.451 508 345C509.822 342.13 512.623 340.226 515.425 338.32L515.426 338.32L515.427 338.319L515.429 338.317L515.431 338.316C516.443 337.628 517.457 336.939 518.424 336.204C520.358 334.735 522.097 333.041 523.831 331.352C525.554 329.674 527.271 328.001 529.17 326.559C530.736 325.369 532.409 324.456 534.08 323.545C536.275 322.347 538.467 321.151 540.409 319.331C546.995 313.158 551.517 304.825 555.969 296.622C558.331 292.269 560.674 287.953 563.294 284.015C563.861 283.163 564.463 282.203 565.103 281.182L565.112 281.168L565.114 281.165C568.962 275.03 574.157 266.746 581 267C579.486 274.315 575.484 279.294 571.227 284.592C569.589 286.63 567.913 288.716 566.326 291C564.854 293.119 563.393 295.259 561.93 297.405L561.929 297.407L561.925 297.413C550.922 313.542 539.73 329.949 522 339.254C521.279 339.632 520.568 340.017 519.861 340.4L519.851 340.406ZM558.136 663.888L559.576 663.408V651.408L556.984 652.272H528.952L526.36 651.408V663.408L527.8 663.888L534.184 654.432H539.896V684.96L535.384 688.512V690H549.976L550.936 688.08L545.896 686.352V654.432H551.752L558.136 663.888ZM597.972 690H583.38V688.512L587.892 685.008L584.196 676.128H568.068L564.132 685.2L572.58 688.08L571.62 690H557.028V688.512L561.54 684.96L575.124 653.808L580.116 651.36L594.132 685.152L598.932 688.08L597.972 690ZM569.028 673.968L576.324 657.12L583.332 673.968H569.028ZM512.287 678.72C513.087 679.584 513.487 680.512 513.487 681.504C513.487 682.56 513.215 683.568 512.671 684.528C512.127 685.456 511.343 686.208 510.319 686.784C509.295 687.36 508.127 687.648 506.815 687.648C504.607 687.648 502.463 686.928 500.383 685.488C498.303 684.048 496.447 682.032 494.815 679.44H492.991V688.752C494.239 689.296 496.287 689.808 499.135 690.288C502.015 690.768 504.495 691.008 506.575 691.008C508.271 691.008 510.143 690.384 512.191 689.136C514.271 687.856 516.031 686.304 517.471 684.48C518.911 682.624 519.631 680.896 519.631 679.296C519.631 677.792 519.119 676.448 518.095 675.264C517.103 674.048 515.871 672.992 514.399 672.096C512.927 671.168 511.007 670.112 508.639 668.928C506.495 667.808 504.815 666.896 503.599 666.192C502.415 665.488 501.407 664.688 500.575 663.792C499.775 662.864 499.375 661.872 499.375 660.816C499.375 658.992 499.903 657.52 500.959 656.4C502.047 655.248 503.503 654.672 505.327 654.672C507.375 654.672 509.327 655.392 511.183 656.832C513.071 658.272 514.799 660.288 516.367 662.88H518.191V653.568C516.975 653.024 515.055 652.512 512.431 652.032C509.807 651.552 507.503 651.312 505.519 651.312C503.887 651.312 502.095 651.952 500.143 653.232C498.223 654.48 496.591 656.032 495.247 657.888C493.903 659.712 493.231 661.424 493.231 663.024C493.231 664.528 493.743 665.904 494.767 667.152C495.823 668.4 497.087 669.488 498.559 670.416C500.031 671.312 501.983 672.4 504.415 673.68C506.463 674.736 508.079 675.632 509.263 676.368C510.479 677.072 511.487 677.856 512.287 678.72ZM481.977 690H453.177V688.512L457.689 684.96V655.872L452.697 654.192L453.657 652.272H481.497L484.089 651.408V662.448L482.649 662.928L476.937 654.432H463.689V669.648H471.225L474.729 663.504H476.217V678.096L474.297 679.056L471.273 671.808H463.689V687.84H476.745L483.129 678.384L484.569 678.864V690.864L481.977 690ZM444.276 675.12V657.312L448.836 653.76V652.272H437.604L436.644 654.192L441.636 656.688V674.496C441.636 677.056 441.156 679.28 440.196 681.168C439.268 683.056 438.068 684.496 436.596 685.488C435.156 686.448 433.684 686.928 432.18 686.928C428.116 686.928 425.076 685.792 423.06 683.52C421.076 681.248 420.084 678.08 420.084 674.016V657.312L424.644 653.76V652.272H410.052L409.092 654.192L414.084 655.872V676.32C414.084 679.104 414.708 681.616 415.956 683.856C417.236 686.064 418.996 687.808 421.236 689.088C423.508 690.336 426.068 690.96 428.916 690.96C431.188 690.96 433.508 690.368 435.876 689.184C438.244 687.968 440.228 686.16 441.828 683.76C443.46 681.36 444.276 678.48 444.276 675.12ZM390.79 671.616C392.966 671.616 394.678 671.024 395.926 669.84C397.206 668.656 397.846 667.024 397.846 664.944C397.846 662 397.094 659.6 395.59 657.744C394.118 655.856 391.958 654.912 389.11 654.912C386.934 654.912 384.95 655.536 383.158 656.784V686.064L390.598 688.128L389.638 690.048H372.646V688.56L377.158 685.008V655.824L372.166 654.192L373.126 652.272H378.694C381.798 652.272 384.854 652.176 387.862 651.984C390.102 651.856 391.75 651.792 392.806 651.792C395.046 651.792 397.03 652.272 398.758 653.232C400.518 654.16 401.878 655.456 402.838 657.12C403.798 658.784 404.278 660.624 404.278 662.64C404.278 664.88 403.462 666.992 401.83 668.976C400.198 670.96 398.118 672.512 395.59 673.632C393.062 674.752 390.582 675.248 388.15 675.12L385.894 673.488L386.854 671.568H390.742L390.79 671.616ZM354.208 690H368.8L369.76 688.08L364.96 685.152L350.944 651.36L345.952 653.808L332.368 684.96L327.856 688.512V690H342.448L343.408 688.08L334.96 685.2L338.896 676.128H355.024L358.72 685.008L354.208 688.512V690ZM347.152 657.12L339.856 673.968H354.16L347.152 657.12ZM591.766 740L592.766 738H332.766C338.874 744.3 347.194 749.038 355.297 753.653L355.298 753.653C359.268 755.914 363.186 758.145 366.766 760.516C376.482 766.951 386.14 773.496 395.797 780.041L395.798 780.041L395.799 780.042L395.8 780.043L395.801 780.043L395.802 780.044L395.803 780.045L395.804 780.046L395.805 780.046L395.807 780.047L395.807 780.048L395.815 780.053L395.822 780.057L395.829 780.062L395.836 780.067L395.843 780.072L395.85 780.076C408.118 788.391 420.384 796.703 432.766 804.786C439.503 809.183 446.219 813.749 452.766 818.427C453.489 818.944 454.199 819.468 454.903 819.988C459.142 823.117 463.192 826.107 468.766 826.516C472.672 826.803 475.533 824.75 478.511 822.612L478.515 822.609C478.748 822.442 478.983 822.273 479.218 822.106C479.4 821.977 479.582 821.848 479.766 821.72C483.064 819.418 486.282 817.015 489.498 814.612C493.215 811.836 496.93 809.062 500.767 806.445C509.34 800.598 517.817 794.556 526.297 788.512L526.302 788.508L526.304 788.506C539.658 778.989 553.017 769.468 566.766 760.695C570.893 758.062 574.952 755.338 579.011 752.612L579.012 752.612L579.013 752.611L579.019 752.607L579.026 752.603C581.93 750.653 584.834 748.703 587.766 746.786C588.488 746.314 589.237 745.844 589.994 745.369C593.671 743.065 597.568 740.622 599.766 737C599.002 737.3 598.255 737.614 597.513 737.927L597.511 737.928L597.509 737.928C595.63 738.719 593.779 739.498 591.766 740ZM397 759.161L405 748.014L459 785.514V801.514L397 759.161ZM539 759.161L531 748.014L477 785.514V801.514L539 759.161ZM465.666 775.347V772.503C464.217 772.411 462.934 772.119 461.818 771.626C460.454 771.021 459.38 770.178 458.596 769.095C457.821 768.013 457.382 766.756 457.28 765.324H460.552C460.637 766.313 460.97 767.131 461.549 767.778C462.137 768.418 462.879 768.895 463.774 769.21C464.374 769.414 465.005 769.55 465.666 769.619V759.94L464.643 759.648C462.598 759.06 460.978 758.22 459.785 757.129C458.592 756.038 457.995 754.611 457.995 752.847C457.995 751.381 458.392 750.102 459.184 749.011C459.985 747.912 461.059 747.06 462.406 746.455C463.407 746.001 464.493 745.716 465.666 745.597V742.619H467.762V745.559C469.121 745.642 470.348 745.936 471.444 746.442C472.757 747.038 473.797 747.857 474.564 748.896C475.339 749.936 475.748 751.117 475.791 752.438H472.723C472.569 751.142 471.947 750.136 470.856 749.421C469.983 748.848 468.952 748.504 467.762 748.389V757.48L468.785 757.756C469.467 757.935 470.226 758.182 471.061 758.497C471.905 758.813 472.71 759.243 473.477 759.788C474.253 760.325 474.892 761.016 475.395 761.859C475.897 762.703 476.149 763.739 476.149 764.966C476.149 766.381 475.778 767.659 475.037 768.801C474.304 769.943 473.23 770.851 471.815 771.524C470.666 772.074 469.315 772.4 467.762 772.5V775.347H465.666ZM707.996 305.427C689.524 295.586 667.814 290.152 647 288.17C644.901 287.97 642.735 287.784 640.521 287.595L640.51 287.594C620.947 285.917 597.678 283.923 584 269C587.385 269.5 590.597 270.419 593.796 271.333C598.4 272.65 602.976 273.959 608 274C610.319 278.309 615.875 280.801 619 276C625.434 277.24 632.034 277.456 638.619 277.671L638.621 277.671L638.622 277.671L638.624 277.671L638.625 277.672L638.627 277.672L638.628 277.672L638.63 277.672L638.632 277.672C641.764 277.774 644.893 277.876 648 278.089C673.082 279.807 703.953 284.144 724 300.468C735.185 309.575 741.582 322.034 747.983 334.503C748.582 335.669 749.181 336.836 749.784 338C750.362 339.116 750.94 340.233 751.518 341.351C760.388 358.511 769.348 375.844 781.449 391C789.112 400.598 796.773 410.102 804.759 419.424C805.709 420.533 806.692 421.658 807.689 422.798C813.108 428.999 818.951 435.683 822.246 443C826.425 452.279 825.556 461.412 824.363 471C824.24 471.986 824.134 472.947 824.031 473.889L823.988 474.29L823.988 474.292L823.987 474.294L823.5 480.5L720.909 529.073C721.468 527.658 722.022 526.254 722.725 525C727.393 516.674 735.66 504.952 745 502C741.943 497.609 738.235 493.942 734.508 490.257C732.394 488.165 730.273 486.068 728.262 483.829C724.411 479.542 720.932 474.685 717.491 469.88L717.49 469.879L717.488 469.876L717.486 469.873C717.174 469.438 716.863 469.003 716.551 468.569C715.198 466.683 713.846 464.814 712.475 463C711.626 461.877 710.414 460.588 709.111 459.2C705.873 455.755 702.068 451.705 701.828 448.09C701.593 444.54 705.729 441.545 709.439 438.858C711.396 437.44 713.235 436.108 714.251 434.826C723.614 423.008 735.041 414.529 748 406.804C749.054 406.175 750.131 405.497 751.227 404.807C755.258 402.268 759.555 399.561 764 398.533C766.804 397.885 769.341 398.505 771.894 399.13C773.876 399.615 775.867 400.103 778 400C775.659 397.17 773.049 394.591 770.437 392.01C767.47 389.078 764.499 386.142 761.913 382.83C756.142 375.44 751.357 367.062 746.671 358.858L746.669 358.854L746.668 358.853C745.721 357.195 744.779 355.545 743.833 353.911C742.492 351.594 741.535 349.098 740.579 346.603C739.73 344.389 738.882 342.176 737.765 340.089C731.079 327.597 720.762 312.229 707.996 305.427ZM293 165.502C281.119 167.604 284.033 184.456 295.961 182.613C307.6 180.814 303.665 163.616 293 165.502ZM620.604 596.108C618.666 598.875 619.197 601.993 620.198 605L599 592.762C622.266 582.548 644.999 571.174 667.725 559.802L667.728 559.801C672.151 557.587 676.573 555.374 681 553.17C683.338 552.005 685.679 550.836 688.022 549.665L688.031 549.661L688.038 549.657L688.046 549.653C694.697 546.329 701.36 543 708 539.77C709.079 539.245 710.263 538.935 711.445 538.626C712.936 538.236 714.424 537.846 715.695 537.027L821 488C832.339 481.806 847.239 479.234 857.532 489.379C865.511 497.242 870.934 508.457 876.141 519.224L876.141 519.225L876.142 519.228C878.459 524.019 880.733 528.721 883.17 533C899.054 560.888 914.819 588.88 930.306 617C931.716 619.56 933.263 622.162 934.833 624.804L934.838 624.812L934.845 624.824L934.849 624.83L934.857 624.844L934.86 624.849C943.398 639.207 952.63 654.735 944.471 671C938.748 682.408 928.16 687.568 917.458 692.784C915.297 693.838 913.131 694.893 911 696.003C900.349 701.549 889.598 706.826 878.844 712.105L878.837 712.109C872.887 715.029 866.936 717.951 861 720.918C857.008 722.914 853.113 725.059 849.22 727.204C843.574 730.314 837.931 733.421 832 736.069C826.032 738.734 820.306 741.752 814.57 744.776C811.07 746.622 807.565 748.47 804 750.24C802.842 750.815 801.664 751.29 800.51 751.755L800.508 751.756C797.085 753.135 793.871 754.431 792 758C785.773 757.607 780.67 760.548 775.503 763.527L775.501 763.528L775.499 763.529C774.34 764.197 773.179 764.867 772 765.501C768.683 767.286 765.303 768.959 761.922 770.632L761.92 770.633L761.917 770.634C758.535 772.308 755.152 773.983 751.83 775.77C748.098 777.779 744.209 779.495 740.321 781.211L740.318 781.212L740.316 781.213C737.182 782.596 734.05 783.978 731 785.514C723.442 789.32 715.941 793.242 708.443 797.163L708.439 797.165C697.672 802.796 686.912 808.422 676 813.694C673.989 814.665 672.001 815.741 670.013 816.816L670.012 816.817L670.011 816.817L670.01 816.818L670.005 816.82C661.535 821.402 653.082 825.973 643 822.451C631.164 818.315 624.844 805.315 619.437 794.19L619.435 794.187C618.386 792.028 617.371 789.939 616.356 788C614.81 785.045 613.018 782.165 611.221 779.275C607.417 773.161 603.587 767.005 602 760C610.131 756.154 613.626 762.397 617.155 768.699L617.156 768.7L617.157 768.701L617.158 768.705L617.159 768.706C617.783 769.821 618.409 770.937 619.061 772C620.197 773.851 621.393 775.667 622.589 777.482C624.008 779.635 625.427 781.788 626.744 784C627.8 785.774 628.862 787.812 629.976 789.951C635.349 800.266 641.94 812.919 655 809.505C665.464 806.769 675.312 800.843 684.823 795.12C687.914 793.26 690.97 791.421 694 789.72C699.995 786.354 706.174 783.32 712.356 780.285C718.287 777.372 724.222 774.458 730 771.248C744.999 762.915 760.653 755.549 776.252 748.209L776.253 748.208L776.256 748.206L776.26 748.205C782.868 745.095 789.466 741.991 796 738.819C799.895 736.929 803.596 734.718 807.292 732.511L807.294 732.51L807.296 732.508L807.297 732.508C810.496 730.597 813.69 728.69 817 726.995C824.029 723.396 831.152 719.959 838.276 716.52L838.28 716.518C846.227 712.683 854.176 708.847 862 704.784C865.745 702.839 869.49 700.879 873.236 698.918C884.77 692.882 896.325 686.834 908 681.173C909.317 680.534 910.69 679.905 912.087 679.263L912.089 679.262C919.541 675.843 927.698 672.1 931.852 664.999C935.18 659.309 934.134 652.839 931.866 647C929.394 640.638 925.675 634.67 921.97 628.726L921.969 628.725C919.549 624.84 917.134 620.966 915.079 617C900.206 588.298 884.281 559.805 867.822 532C865.771 528.536 864.007 524.493 862.208 520.372C859.019 513.064 855.722 505.51 850.529 500.498C847.049 497.14 842.699 496.011 838.361 494.886C835.483 494.14 832.61 493.395 830 492C828.561 496.109 823.526 497.89 819.053 499.472L819.052 499.473C817.594 499.989 816.195 500.483 815 501.031C808.312 504.095 801.723 507.411 795.132 510.727C789.773 513.423 784.414 516.12 779 518.682C762.563 526.461 746.223 534.488 729.885 542.513L729.88 542.516L729.878 542.517L729.876 542.518L729.874 542.518L729.872 542.519L729.87 542.52L729.867 542.521L729.684 542.611L729.516 542.694L729.209 542.845C727.546 543.661 725.883 544.478 724.22 545.295L722.033 546.368C703.748 555.342 685.447 564.265 667 572.785C655.593 578.053 644.248 583.447 633 589.03C631.854 589.599 630.604 590.09 629.337 590.588L629.335 590.589C626.038 591.884 622.623 593.226 620.604 596.108Z" fill="black"/>
</svg>
